<?xml version="1.0" encoding="utf-8"?>
<!-- Generator: Adobe Illustrator 22.0.1, SVG Export Plug-In . SVG Version: 6.00 Build 0)  -->
<svg version="1.1" id="Layer_1" xmlns="http://www.w3.org/2000/svg" xmlns:xlink="http://www.w3.org/1999/xlink" x="0px" y="0px"
	 viewBox="0 0 506 506" style="enable-background:new 0 0 506 506;" xml:space="preserve">
<style type="text/css">
	.st0{fill:#FFFFFF;}
</style>
<rect x="33.7" y="33" width="439.6" height="439.6"/>
<path class="st0" d="M419.8,89.7c-2.7-5.8-11.3-0.8-8.6,5c14.5,31.6,2.9,67.1-12.6,95.8c-15.4,28.8-33.3,56.4-50.4,84.2
	c0-1.8,0.2-3.6,0.2-5.3c0.3-6.2,0.6-12.5,1-18.7c0.7-12.8,1.3-25.6,2-38.4c0.2-4.7-5.5-6.1-8.5-3.5c-1.4,1.1-2.7,2.4-3.9,3.6
	c-1.3-2.8-5.8-3.3-8.2-1.3c-6.2,5.2-8.7,13.4-7.2,21c-1.6,2.8-3.4,5.4-5.5,7.9c-0.6-7.5-1-15-1.2-22.4c-0.1-4-5.6-7.1-8.5-3.5
	c-0.6,0.7-1.1,1.4-1.7,2.2c1.9-8.3,4-16.6,6.2-24.8c3.1-11.1,6.9-21.9,10.3-32.8c2.4-7.9,2.7-16-4.3-21.4c-1.6-1.2-4.8-0.7-6.1,0.8
	c-26.6,31.3-60.8,57.8-85.4,90.5c9.9-16.9,16.6-35.7,18-55.3c1.3-18.9-2.2-41.6-14.5-56.7c-5.6-6.9-14.5-9.2-22-3.8
	c-7.7,5.5-11.6,15.7-15,24.1c-7.5,18.6-10.9,39-10.1,59.1c0.4,11.1,2.1,22.2,5,32.9c1.5,5.5,3.4,11,5.6,16.3c1,2.4,2,5.1,3.2,7.7
	c-0.8,0.9-1.5,1.8-2.3,2.7c-11.3,12.8-23.6,24.7-36.7,35.7c-6.7,5.6-13.7,11-20.8,16.1c-1.7,1.2-14,10.5-18.8,12.9
	c2.9-29.6,9.4-58.7,19.3-86.7c1.7-4.9-5-8.1-8.4-4.9c-18.3,17.5-36,35.7-53.1,54.5c-4.3,4.8,2.7,11.8,7.1,7.1
	c12.5-13.8,25.4-27.2,38.6-40.3c-4.7,15.9-8.4,32.1-10.9,48.6c-0.8,5.4-1.5,10.9-2.1,16.3c-0.5,4.9-2.6,11.4,2.4,14.5
	c7.7,4.7,17.7-4.2,23.6-8.2c24.7-16.7,48.8-36.7,68.5-59.8c1,0.6,2.1,1,3.2,1.3c-3.8,8.6-6.7,17.7-8.7,27.4c-3.6,17.7-4.3,36-3.1,54
	c0.6,9.2,1.6,18.3,2.9,27.4c1.2,8.7,2.1,18.1,5.2,26.4c5.4,14.2,22.2,23.7,34.5,11c5.2-5.4,7.7-12.7,10.3-19.5
	c3.3-8.9,6.4-17.9,9.5-26.9c14.2-42,25.5-84.9,34.2-128.3c1.3-6.4-7.3-8.6-9.6-2.7c-2.5,6.1-6.3,11.5-11.1,15.8l-0.5-14.9
	c-0.2-5.2-6.5-6.5-9.3-2.5c-1.2,1.7-2.5,3.5-3.8,5.1c2.7-4.1-2-9.4-6.7-7c-3.4,1.7-6.1,4.3-7.9,7.3c-4.8,4.1-10,7.7-15.5,10.7
	c6.8-10.9,14.9-21,23.8-30.7c20.4-22.2,43.6-41.7,63.7-64.2c-0.2,1.5-0.7,3-0.9,3.9c-1.3,4.4-3,8.8-4.4,13.2
	c-3.2,9.9-6.1,19.9-8.7,30c-5.2,19.9-9.1,40-11.9,60.4l0,0c-0.1,0.4-0.1,0.9-0.2,1.3c-0.7,5.5,9,6.9,9.8,1.3
	c0.2-1.4,0.4-2.9,0.6-4.3c1.4-8.4,4.3-16.5,8.4-24c0.4,6.1,0.9,12.1,1.5,18.2c0.5,4.6,5,6.3,8.5,3.5c4.8-3.8,8.9-8.2,12.2-13.1
	c2.3,0.2,4.7-1.2,5.4-3.6c1.3-4.2,3.2-8,5.6-11.5c-0.5,10.2-1.1,20.4-1.6,30.6c-0.5,9.7-4.1,25.3,4.9,32.3c2.5,2,6,2,7.9-1
	c10.1-16.7,20.2-33.3,30.4-50c9.7-16.1,19.9-32,28.4-48.8C426,158.5,434.8,122.4,419.8,89.7z M202,237.7c-2.4-6.4-4.3-13-5.7-19.7
	c-5.9-28-2.8-58.3,9.5-84.2c2.1-4.4,5.7-13.9,11.6-14.3c6.3-0.4,10.6,11.4,12.5,15.9c5.4,13.5,6.6,28.3,4.9,42.7
	c-3,24.5-15.1,46.6-30.2,65.9C203.6,241.9,202.7,239.8,202,237.7z M210.6,252.6c1.3-1.6,2.5-3.3,3.7-4.9c-0.9,1.5-1.7,3-2.5,4.6
	C211.4,252.4,211,252.5,210.6,252.6z M256.6,235.4c0.2-0.2,0.4-0.5,0.6-0.7c-2.4,3.1-4.9,6.1-7.6,9.1c0.2-0.9,0.5-1.7,0.9-2.5
	C252.6,239.4,254.7,237.4,256.6,235.4z M229.8,255.5c3.4-1.7,6.7-3.7,9.9-5.9c0.4,2.5,1.3,4.9,2.6,7.2c1.7,2.7,5.6,3.3,7.9,1
	c3.8-3.8,7.3-7.8,10.8-11.9c0.1,3.5,0.2,7.1,0.4,10.6c0.1,3.7,4.2,6.3,7.5,4.3c3-1.8,5.7-3.8,8.2-6c-6,27-13.1,53.8-21.3,80.2
	c-5.2,16.9-10.9,33.7-17,50.3c-2.2,5.9-4.4,14-9.9,17.7c-7.8,5.3-14.6-4-16.6-10.6c-2.4-7.7-3.3-16.1-4.4-24
	c-1.2-8.5-2.1-17.1-2.6-25.7c-1-16.8-0.5-33.9,2.8-50.4c2.3-11.2,6-21.7,10.8-31.6C222.8,259.2,226.7,257.1,229.8,255.5z"/>
<circle class="st0" cx="379" cy="68" r="9"/>
</svg>
